<?xml version="1.0" encoding="utf-8"?>
<!-- Generator: Adobe Illustrator 16.0.0, SVG Export Plug-In . SVG Version: 6.00 Build 0)  -->
<!DOCTYPE svg PUBLIC "-//W3C//DTD SVG 1.1//EN" "http://www.w3.org/Graphics/SVG/1.1/DTD/svg11.dtd">
<svg version="1.1" xmlns="http://www.w3.org/2000/svg" xmlns:xlink="http://www.w3.org/1999/xlink" x="0px" y="0px" width="160px"
	 height="135px" viewBox="0 0 160 135" enable-background="new 0 0 160 135" xml:space="preserve">
<g id="svg2" xmlns:dc="http://purl.org/dc/elements/1.1/" xmlns:cc="http://creativecommons.org/ns#" xmlns:rdf="http://www.w3.org/1999/02/22-rdf-syntax-ns#" xmlns:svg="http://www.w3.org/2000/svg" xmlns:sodipodi="http://sodipodi.sourceforge.net/DTD/sodipodi-0.dtd" xmlns:inkscape="http://www.inkscape.org/namespaces/inkscape" sodipodi:docname="wf-logo-small.svg" inkscape:version="0.91 r13725">
	
		<sodipodi:namedview  inkscape:cy="67.5" inkscape:cx="80" inkscape:zoom="1.7481481" showgrid="false" guidetolerance="10" gridtolerance="10" objecttolerance="10" borderopacity="1" pagecolor="#ffffff" bordercolor="#666666" id="namedview4" inkscape:current-layer="svg2" inkscape:window-maximized="0" inkscape:window-y="23" inkscape:window-x="4" inkscape:window-height="512" inkscape:window-width="724" inkscape:pageshadow="2" inkscape:pageopacity="0">
		</sodipodi:namedview>
	<path fill="none" enable-background="new    " d="z"/>
	<polygon fill="none" stroke="#FFFFFF" stroke-miterlimit="10" points="27.417,86.25 43.584,95.583 43.584,69.5 64.084,82.083 
		64.084,107.166 80.834,117.083 93.751,109.001 93.751,83.584 114.252,71.918 114.252,97.585 134.418,85.668 134.418,71.334 
		123.418,78.168 123.418,67.5 134.418,61.501 134.418,23.751 80.502,54.751 27.417,24.166 	"/>
</g>
<g id="Layer_2">
	<line fill="none" stroke="#FFFFFF" stroke-miterlimit="10" x1="80.502" y1="54.751" x2="80.834" y2="117.083"/>
	<polygon fill="none" stroke="#FFFFFF" stroke-miterlimit="10" points="43.625,48.688 43.625,58.5 65.438,70.688 65.438,61.25 	"/>
	<polygon fill="none" stroke="#FFFFFF" stroke-miterlimit="10" points="114.733,48.687 114.733,58.5 92.921,70.688 92.921,61.25 	
		"/>
	<line fill="none" stroke="#FFFFFF" stroke-miterlimit="10" x1="43.729" y1="96.022" x2="63.591" y2="81.78"/>
	<line fill="none" stroke="#FFFFFF" stroke-miterlimit="10" x1="94.734" y1="83.024" x2="114.042" y2="97.959"/>
	<line fill="none" stroke="#FFFFFF" stroke-miterlimit="10" x1="123.418" y1="67.75" x2="134.812" y2="70.812"/>
</g>
</svg>
